# xmcd CD database file
#
# Track frame offsets:
#	150
#	19273
#	39846
#	59251
#	81387
#	95467
#	115154
#	135741
#	152347
#	169261
#	192024
#	207976
#	228365
#	243399
#	263694
#	281423
#	303129
#	327233
#
# Disc length: 4620 seconds
#
# Revision: 1
# Processed by: cddbd v1.5.2PL0 Copyright (c) Steve Scherf et al.
# Submitted via: CDex 1.81
#
DISCID=e8120a12
DTITLE=R. Kelly - The R. In R and B Vol. 1
DYEAR=2003
DGENRE=R&B
TTITLE0=Bump N' Grind
TTITLE1=Your Body's Calling
TTITLE2=Sex Me Part 1
TTITLE3=Gotham City
TTITLE4=Ignition Remix
TTITLE5=Down Low
TTITLE6=When A Woman's Fed Up
TTITLE7=Thoia Thoing
TTITLE8=Touched A Dream
TTITLE9=I Wish
TTITLE10=Ghetto Religion
TTITLE11=The Storm Is Over Now
TTITLE12=She's Got The Vibe
TTITLE13=If I Could Turn Back The Hands Of Time
TTITLE14=The World's Greatest
TTITLE15=I'm You Angel
TTITLE16=I Believe I Can Fly
TTITLE17=Home Alone
EXTD=YEAR: 2003
EXTT0=
EXTT1=
EXTT2=
EXTT3=
EXTT4=
EXTT5=
EXTT6=
EXTT7=
EXTT8=
EXTT9=
EXTT10=
EXTT11=
EXTT12=
EXTT13=
EXTT14=
EXTT15=
EXTT16=
EXTT17=
PLAYORDER=
